<svg width="38" height="36" viewBox="0 0 38 36" fill="none" xmlns="http://www.w3.org/2000/svg">
<path fill-rule="evenodd" clip-rule="evenodd" d="M3.8001 26.8V31.3375C3.8001 31.9204 3.95775 32.1117 4.01929 32.1704C4.09376 32.2414 4.3272 32.4 4.9501 32.4H33.0751C33.6758 32.4 33.8966 32.241 33.9698 32.1683C34.0413 32.0973 34.2001 31.8825 34.2001 31.2875V26.8H37.4001V31.2875C37.4001 32.4519 37.0761 33.5933 36.2249 34.4387C35.3754 35.2824 34.2338 35.6 33.0751 35.6H4.9501C3.81362 35.6 2.67206 35.3071 1.81138 34.4866C0.937757 33.6539 0.600098 32.5139 0.600098 31.3375V26.8H3.8001Z" fill="#388E56"/>
<path fill-rule="evenodd" clip-rule="evenodd" d="M19.0001 0.381226C19.8838 0.381226 20.6001 1.09757 20.6001 1.98123V20.9497L23.4687 18.0811C24.0936 17.4563 25.1066 17.4563 25.7315 18.0811C26.3563 18.7059 26.3563 19.719 25.7315 20.3438L19.0001 27.0752L12.2687 20.3438C11.6439 19.719 11.6439 18.7059 12.2687 18.0811C12.8936 17.4563 13.9066 17.4563 14.5315 18.0811L17.4001 20.9497V1.98123C17.4001 1.09757 18.1164 0.381226 19.0001 0.381226Z" fill="#388E56"/>
</svg>