<svg width="38" height="36" viewBox="0 0 38 36" fill="none" xmlns="http://www.w3.org/2000/svg">
<path d="M25.7315 7.63738L19.0001 0.906006L12.2688 7.63738C11.6439 8.26222 11.6439 9.27528 12.2688 9.90012C12.8936 10.525 13.9067 10.525 14.5315 9.90012L17.4001 7.03149V26C17.4001 26.8837 18.1165 27.6 19.0001 27.6C19.8838 27.6 20.6001 26.8837 20.6001 26V7.03149L23.4688 9.90012C24.0936 10.525 25.1067 10.525 25.7315 9.90012C26.3564 9.27528 26.3564 8.26222 25.7315 7.63738Z" fill="#3D8ACE"/>
<path d="M3.8001 31.3375V26.8H0.600098V31.3375C0.600098 32.514 0.937757 33.6539 1.81138 34.4867C2.67206 35.3071 3.81362 35.6 4.9501 35.6H33.0751C34.2338 35.6 35.3754 35.2824 36.2249 34.4387C37.0761 33.5933 37.4001 32.4519 37.4001 31.2875V26.8H34.2001V31.2875C34.2001 31.8825 34.0413 32.0974 33.9698 32.1683C33.8966 32.241 33.6758 32.4 33.0751 32.4H4.9501C4.3272 32.4 4.09376 32.2414 4.01929 32.1704C3.95775 32.1117 3.8001 31.9205 3.8001 31.3375Z" fill="#3D8ACE"/>
</svg>